<?xml version="1.0" encoding="UTF-8" standalone="no"?>
<svg
   height="229.84952"
   width="367.75922"
   style="overflow:visible"
   version="1.1"
   id="svg203"
   sodipodi:docname="logo.svg"
   xml:space="preserve"
   inkscape:version="1.2.2 (b0a8486, 2022-12-01)"
   inkscape:export-filename="logo.png"
   inkscape:export-xdpi="900"
   inkscape:export-ydpi="900"
   xmlns:inkscape="http://www.inkscape.org/namespaces/inkscape"
   xmlns:sodipodi="http://sodipodi.sourceforge.net/DTD/sodipodi-0.dtd"
   xmlns="http://www.w3.org/2000/svg"
   xmlns:svg="http://www.w3.org/2000/svg"><sodipodi:namedview
     id="namedview205"
     pagecolor="#ffffff"
     bordercolor="#666666"
     borderopacity="1.0"
     inkscape:showpageshadow="2"
     inkscape:pageopacity="0.0"
     inkscape:pagecheckerboard="0"
     inkscape:deskcolor="#d1d1d1"
     showgrid="false"
     inkscape:zoom="0.8205866"
     inkscape:cx="58.49474"
     inkscape:cy="267.49157"
     inkscape:window-width="1920"
     inkscape:window-height="1027"
     inkscape:window-x="0"
     inkscape:window-y="25"
     inkscape:window-maximized="1"
     inkscape:current-layer="svg203"
     showguides="false"><sodipodi:guide
       position="167.90199,103.0255"
       orientation="0,-1"
       id="guide1243"
       inkscape:locked="false" /><sodipodi:guide
       position="9.2592244,126.7771"
       orientation="1,0"
       id="guide1245"
       inkscape:locked="false" /><sodipodi:guide
       position="33.907112,149.63241"
       orientation="0,-1"
       id="guide1247"
       inkscape:locked="false" /><sodipodi:guide
       position="359.25923,165.76558"
       orientation="1,0"
       id="guide1249"
       inkscape:locked="false" /><sodipodi:guide
       position="236.53909,165.76558"
       orientation="0,-1"
       id="guide1251"
       inkscape:locked="false" /></sodipodi:namedview><defs
     id="SvgjsDefs1001" /><rect
     y="66.083939"
     x="0.25922281"
     height="1"
     width="1"
     opacity="0"
     id="rect190"
     style="fill:#111111" /><rect
     y="162.22681"
     x="0.25922281"
     width="35"
     height="2"
     id="rect192"
     style="fill:#111111" /><rect
     y="162.22681"
     x="332.75922"
     width="35"
     height="2"
     id="rect194"
     style="fill:#111111" /><g
     id="SvgjsG1009"
     featurekey="duLK5n-0"
     transform="matrix(0.94748244,0,0,0.94748244,43.88023,146.62644)"
     fill="#267cb9" /><text
     xml:space="preserve"
     style="font-style:normal;font-variant:normal;font-weight:normal;font-stretch:normal;font-size:18.6667px;line-height:1.25;font-family:'Noto Sans';-inkscape-font-specification:'Noto Sans';word-spacing:0px;letter-spacing:12.71px;fill:#267cb9;fill-opacity:1"
     x="44.259224"
     y="165.5761"
     id="text848"><tspan
       sodipodi:role="line"
       id="tspan846"
       x="44.259224"
       y="165.5761"
       style="font-style:normal;font-variant:normal;font-weight:normal;font-stretch:normal;font-size:18.6667px;font-family:'Open Sans';-inkscape-font-specification:'Open Sans';fill:#267cb9;fill-opacity:1"
       dx="0">A VIRTUAL LAB</tspan></text><text
     xml:space="preserve"
     style="font-style:normal;font-variant:normal;font-weight:bold;font-stretch:normal;font-size:88px;line-height:1.25;font-family:cmr10;-inkscape-font-specification:'cmr10 Bold';word-spacing:0px;fill:#111111;fill-opacity:1"
     x="6.8100057"
     y="122.80177"
     id="text1225"><tspan
       sodipodi:role="line"
       id="tspan1223"
       x="6.8100057"
       y="122.80177"
       style="font-style:normal;font-variant:normal;font-weight:bold;font-stretch:normal;font-size:88px;font-family:cmr10;-inkscape-font-specification:'cmr10 Bold';fill:#111111;fill-opacity:1">open<tspan
   style="fill:#267cb9;fill-opacity:1"
   id="tspan3598">T</tspan>exi</tspan></text><rect
     style="fill:#267cb9;fill-opacity:1;stroke:none;stroke-width:1.002;stroke-dasharray:1.00043, 1.00043;stroke-dashoffset:0;paint-order:stroke fill markers;stop-color:#000000"
     id="rect7972"
     width="114.91895"
     height="114.91895"
     x="26.267687"
     y="302.98709"
     inkscape:export-filename="../../../../Downloads/logo.png"
     inkscape:export-xdpi="900"
     inkscape:export-ydpi="900"
     ry="13"
     rx="13" /><text
     xml:space="preserve"
     style="font-style:normal;font-variant:normal;font-weight:bold;font-stretch:normal;font-size:120.641px;line-height:1.25;font-family:cmr10;-inkscape-font-specification:'cmr10 Bold';word-spacing:0px;overflow:visible;fill:#ffffff;fill-opacity:1;stroke-width:1.37092"
     x="109.24891"
     y="360.51791"
     id="text7980"
     transform="matrix(0.88776037,0,-0.25066392,1.1264301,0,0)"><tspan
       sodipodi:role="line"
       id="tspan7978"
       x="109.24891"
       y="360.51791"
       style="font-style:normal;font-variant:normal;font-weight:bold;font-stretch:normal;font-size:120.641px;font-family:cmr10;-inkscape-font-specification:'cmr10 Bold';fill:#ffffff;fill-opacity:1;stroke-width:1.37092"><tspan
         style="fill:#ffffff;fill-opacity:1;stroke-width:1.37092"
         id="tspan7976">oT</tspan></tspan></text><path
     id="rect9137"
     style="fill:#267cb9;fill-opacity:1;stroke:none;stroke-width:1.002;stroke-dasharray:1.00043, 1.00043;stroke-dashoffset:0;paint-order:stroke fill markers;stop-color:#000000"
     d="m 253.57958,302.98633 c -7.20198,0 -13,5.79802 -13,13 v 40.5664 c 0.48387,-0.56852 0.96713,-1.13837 1.47656,-1.67968 2.87562,-3.05229 5.94713,-5.41863 9.21484,-7.09961 3.27757,-1.72521 6.60654,-2.58789 9.98829,-2.58789 4.39277,0 8.05495,1.48149 10.98632,4.44531 2.97609,2.91958 4.95798,6.85609 5.94727,11.81055 0.99913,4.9102 0.879,10.1528 -0.36133,15.72656 -1.21079,5.44103 -3.4002,10.50628 -6.57031,15.19531 -3.16027,4.6448 -6.88129,8.35961 -11.16211,11.14649 -4.23611,2.74263 -8.48105,4.11523 -12.73438,4.11523 -2.44058,0 -4.67326,-0.4612 -6.71289,-1.34961 0.68061,6.55303 6.18878,11.63086 12.92774,11.63086 h 88.91797 c 7.20198,0 13,-5.79802 13,-13 V 319.5918 c -1.99885,-1.01794 -4.60692,-1.54492 -7.87305,-1.54492 h -4.49805 c -1.28994,0 -2.31646,0.0645 -3.07812,0.19726 -0.72681,0.13271 -1.38936,0.53177 -1.99024,1.19531 -0.59104,0.61932 -1.03475,1.59285 -1.33007,2.91993 l -16.61133,74.64843 c -0.41345,1.85791 1.01177,3.05119 4.27539,3.58203 3.27347,0.4866 6.68808,0.73047 10.24414,0.73047 l -1.0625,4.77735 h -41 l 1.0625,-4.77735 c 3.59092,0 7.13106,-0.24387 10.62109,-0.73047 3.49987,-0.53084 5.45765,-1.72412 5.8711,-3.58203 l 16.61132,-74.64843 c 0.43314,-1.9464 0.26338,-3.14163 -0.50976,-3.58399 -0.72844,-0.4866 -2.05127,-0.72852 -3.96875,-0.72851 h -4.49805 c -5.89191,0 -10.43883,1.63667 -13.64258,4.91015 -1.65416,1.63674 -3.16429,4.26717 -4.52929,7.89453 -1.35517,3.58314 -2.82954,8.09606 -4.42383,13.53711 h -3.08594 l 8.96485,-31.12109 h 54.16406 c -1.24382,-5.88765 -6.44427,-10.28125 -12.71289,-10.28125 z m 6.88281,45.78125 c -2.23126,0 -4.50106,0.64097 -6.80859,1.92383 -2.27269,1.28283 -4.33699,3.11905 -6.19336,5.50781 -1.89575,2.5657 -3.38056,5.39761 -4.45313,8.49414 -0.83954,2.49306 -1.64346,5.48748 -2.42773,8.77734 v 27.00782 c 1.59875,2.10943 4.15573,3.16406 7.67187,3.16406 5.71758,0 10.12008,-2.63238 13.20899,-7.89649 3.0889,-5.26409 5.53834,-11.96601 7.34961,-20.10547 1.01392,-4.55631 1.6595,-8.31547 1.93554,-11.27929 0.28589,-3.00807 0.0552,-5.72912 -0.69336,-8.16211 -0.46717,-1.50403 -1.20586,-2.80816 -2.21484,-3.91406 -0.96428,-1.15014 -2.07914,-2.01283 -3.3457,-2.58789 -1.22186,-0.61932 -2.56504,-0.92969 -4.0293,-0.92969 z"
     inkscape:export-filename="../../../../Downloads/logo.png"
     inkscape:export-xdpi="900"
     inkscape:export-ydpi="900" /></svg>
