<?xml version="1.0" encoding="UTF-8" standalone="no"?>
<svg
   height="118.46506"
   width="367.75922"
   style="overflow:visible"
   version="1.1"
   id="svg203"
   sodipodi:docname="logo.svg"
   xml:space="preserve"
   inkscape:version="1.2.2 (b0a8486, 2022-12-01)"
   inkscape:export-filename="logo.png"
   inkscape:export-xdpi="300"
   inkscape:export-ydpi="300"
   xmlns:inkscape="http://www.inkscape.org/namespaces/inkscape"
   xmlns:sodipodi="http://sodipodi.sourceforge.net/DTD/sodipodi-0.dtd"
   xmlns:xlink="http://www.w3.org/1999/xlink"
   xmlns="http://www.w3.org/2000/svg"
   xmlns:svg="http://www.w3.org/2000/svg"><sodipodi:namedview
     id="namedview205"
     pagecolor="#ffffff"
     bordercolor="#666666"
     borderopacity="1.0"
     inkscape:showpageshadow="2"
     inkscape:pageopacity="0.0"
     inkscape:pagecheckerboard="0"
     inkscape:deskcolor="#d1d1d1"
     showgrid="false"
     inkscape:zoom="1.1911425"
     inkscape:cx="174.2025"
     inkscape:cy="274.10659"
     inkscape:window-width="1280"
     inkscape:window-height="667"
     inkscape:window-x="119"
     inkscape:window-y="25"
     inkscape:window-maximized="0"
     inkscape:current-layer="svg203"
     showguides="true"><sodipodi:guide
       position="167.90199,47.329674"
       orientation="0,-1"
       id="guide1243"
       inkscape:locked="false" /><sodipodi:guide
       position="9.2592244,71.081274"
       orientation="1,0"
       id="guide1245"
       inkscape:locked="false" /><sodipodi:guide
       position="33.907112,93.936586"
       orientation="0,-1"
       id="guide1247"
       inkscape:locked="false" /><sodipodi:guide
       position="359.25923,110.06976"
       orientation="1,0"
       id="guide1249"
       inkscape:locked="false" /><sodipodi:guide
       position="236.53909,110.06976"
       orientation="0,-1"
       id="guide1251"
       inkscape:locked="false" /></sodipodi:namedview><defs
     id="SvgjsDefs1001" /><rect
     style="fill:#ffffff;fill-opacity:1;stroke:none;stroke-width:1.002;stroke-dasharray:1.00043, 1.00043;stroke-dashoffset:0;paint-order:stroke fill markers;stop-color:#000000"
     id="rect1794"
     width="114.91895"
     height="114.91895"
     x="240.57909"
     y="247.29819"
     inkscape:export-filename="../../../../Downloads/logo.png"
     inkscape:export-xdpi="900"
     inkscape:export-ydpi="900"
     ry="13"
     rx="13" /><path
     style="fill:#267cb9;fill-opacity:1;stroke:none;stroke-width:1.002;stroke-dasharray:1.00043, 1.00043;stroke-dashoffset:0;paint-order:stroke fill markers;stop-color:#000000"
     sodipodi:type="inkscape:offset"
     inkscape:radius="0"
     inkscape:original="M 131.00781 362.2168 C 123.80583 362.2168 118.00781 368.01482 118.00781 375.2168 L 118.00781 415.7832 C 118.49168 415.21468 118.97494 414.64483 119.48438 414.10352 C 122.35999 411.05123 125.43151 408.68489 128.69922 407.00391 C 131.97679 405.2787 135.30575 404.41602 138.6875 404.41602 C 143.08027 404.41602 146.74246 405.89751 149.67383 408.86133 C 152.64992 411.78091 154.6318 415.71741 155.62109 420.67188 C 156.62022 425.58207 156.5001 430.82468 155.25977 436.39844 C 154.04898 441.83947 151.85956 446.90472 148.68945 451.59375 C 145.52918 456.23855 141.80816 459.95335 137.52734 462.74023 C 133.29123 465.48286 129.0463 466.85547 124.79297 466.85547 C 122.35239 466.85547 120.11971 466.39427 118.08008 465.50586 C 118.76069 472.05889 124.26885 477.13672 131.00781 477.13672 L 219.92578 477.13672 C 227.12776 477.13672 232.92578 471.3387 232.92578 464.13672 L 232.92578 378.82227 C 230.92693 377.80433 228.31886 377.27734 225.05273 377.27734 L 220.55469 377.27734 C 219.26475 377.27734 218.23822 377.34185 217.47656 377.47461 C 216.74975 377.60732 216.08721 378.00638 215.48633 378.66992 C 214.89529 379.28924 214.45157 380.26276 214.15625 381.58984 L 197.54492 456.23828 C 197.13147 458.09619 198.55669 459.28947 201.82031 459.82031 C 205.09378 460.30691 208.50839 460.55078 212.06445 460.55078 L 211.00195 465.32812 L 170.00195 465.32812 L 171.06445 460.55078 C 174.65537 460.55078 178.19552 460.30691 181.68555 459.82031 C 185.18542 459.28947 187.14319 458.09619 187.55664 456.23828 L 204.16797 381.58984 C 204.60111 379.64344 204.43134 378.44822 203.6582 378.00586 C 202.92976 377.51926 201.60693 377.27733 199.68945 377.27734 L 195.19141 377.27734 C 189.2995 377.27734 184.75258 378.91402 181.54883 382.1875 C 179.89467 383.82424 178.38453 386.45467 177.01953 390.08203 C 175.66436 393.66517 174.18999 398.17809 172.5957 403.61914 L 169.50977 403.61914 L 178.47461 372.49805 L 232.63867 372.49805 C 231.39485 366.6104 226.1944 362.2168 219.92578 362.2168 L 131.00781 362.2168 z M 137.89062 407.99805 C 135.65937 407.99805 133.38956 408.63901 131.08203 409.92188 C 128.80934 411.2047 126.74504 413.04093 124.88867 415.42969 C 122.99292 417.99539 121.50812 420.8273 120.43555 423.92383 C 119.59601 426.41689 118.79208 429.41131 118.00781 432.70117 L 118.00781 459.70898 C 119.60656 461.81841 122.16355 462.87305 125.67969 462.87305 C 131.39727 462.87305 135.79976 460.24067 138.88867 454.97656 C 141.97757 449.71247 144.42701 443.01055 146.23828 434.87109 C 147.2522 430.31478 147.89779 426.55562 148.17383 423.5918 C 148.45972 420.58373 148.22903 417.86268 147.48047 415.42969 C 147.0133 413.92566 146.2746 412.62152 145.26562 411.51562 C 144.30134 410.36548 143.18648 409.50279 141.91992 408.92773 C 140.69806 408.30841 139.35488 407.99805 137.89062 407.99805 z "
     xlink:href="#rect9137"
     id="path1796"
     d="m 131.00781,362.2168 c -7.20198,0 -13,5.79802 -13,13 v 40.5664 c 0.48387,-0.56852 0.96713,-1.13837 1.47657,-1.67968 2.87561,-3.05229 5.94713,-5.41863 9.21484,-7.09961 3.27757,-1.72521 6.60653,-2.58789 9.98828,-2.58789 4.39277,0 8.05496,1.48149 10.98633,4.44531 2.97609,2.91958 4.95797,6.85608 5.94726,11.81055 0.99913,4.91019 0.87901,10.1528 -0.36132,15.72656 -1.21079,5.44103 -3.40021,10.50628 -6.57032,15.19531 -3.16027,4.6448 -6.88129,8.3596 -11.16211,11.14648 -4.23611,2.74263 -8.48104,4.11524 -12.73437,4.11524 -2.44058,0 -4.67326,-0.4612 -6.71289,-1.34961 0.68061,6.55303 6.18877,11.63086 12.92773,11.63086 h 88.91797 c 7.20198,0 13,-5.79802 13,-13 v -85.31445 c -1.99885,-1.01794 -4.60692,-1.54493 -7.87305,-1.54493 h -4.49804 c -1.28994,0 -2.31647,0.0645 -3.07813,0.19727 -0.72681,0.13271 -1.38935,0.53177 -1.99023,1.19531 -0.59104,0.61932 -1.03476,1.59284 -1.33008,2.91992 l -16.61133,74.64844 c -0.41345,1.85791 1.01177,3.05119 4.27539,3.58203 3.27347,0.4866 6.68808,0.73047 10.24414,0.73047 l -1.0625,4.77734 h -41 l 1.0625,-4.77734 c 3.59092,0 7.13107,-0.24387 10.6211,-0.73047 3.49987,-0.53084 5.45764,-1.72412 5.87109,-3.58203 l 16.61133,-74.64844 c 0.43314,-1.9464 0.26337,-3.14162 -0.50977,-3.58398 -0.72844,-0.4866 -2.05127,-0.72853 -3.96875,-0.72852 h -4.49804 c -5.89191,0 -10.43883,1.63668 -13.64258,4.91016 -1.65416,1.63674 -3.1643,4.26717 -4.5293,7.89453 -1.35517,3.58314 -2.82954,8.09606 -4.42383,13.53711 h -3.08593 l 8.96484,-31.12109 h 54.16406 C 231.39485,366.6104 226.1944,362.2168 219.92578,362.2168 Z m 6.88281,45.78125 c -2.23125,0 -4.50106,0.64096 -6.80859,1.92383 -2.27269,1.28282 -4.33699,3.11905 -6.19336,5.50781 -1.89575,2.5657 -3.38055,5.39761 -4.45312,8.49414 -0.83954,2.49306 -1.64347,5.48748 -2.42774,8.77734 v 27.00781 c 1.59875,2.10943 4.15574,3.16407 7.67188,3.16407 5.71758,0 10.12007,-2.63238 13.20898,-7.89649 3.0889,-5.26409 5.53834,-11.96601 7.34961,-20.10547 1.01392,-4.55631 1.65951,-8.31547 1.93555,-11.27929 0.28589,-3.00807 0.0552,-5.72912 -0.69336,-8.16211 -0.46717,-1.50403 -1.20587,-2.80817 -2.21485,-3.91407 -0.96428,-1.15014 -2.07914,-2.01283 -3.3457,-2.58789 -1.22186,-0.61932 -2.56504,-0.92968 -4.0293,-0.92968 z"
     transform="matrix(0.92442551,0,0,0.92442551,135.83258,-83.202239)" /><g
     id="SvgjsG1009"
     featurekey="duLK5n-0"
     transform="matrix(0.94748244,0,0,0.94748244,43.88023,90.937808)"
     fill="#267cb9" /><g
     id="g498"
     transform="translate(0,-55.688635)"><rect
       y="66.083939"
       x="0.25922281"
       height="1"
       width="1"
       opacity="0"
       id="rect190"
       style="fill:#111111" /><rect
       y="162.22681"
       x="0.25922281"
       width="35"
       height="2"
       id="rect192"
       style="fill:#111111" /><rect
       y="162.22681"
       x="332.75922"
       width="35"
       height="2"
       id="rect194"
       style="fill:#111111" /><text
       xml:space="preserve"
       style="font-style:normal;font-variant:normal;font-weight:normal;font-stretch:normal;font-size:18.6667px;line-height:1.25;font-family:'Noto Sans';-inkscape-font-specification:'Noto Sans';letter-spacing:12.71px;word-spacing:0px;fill:#267cb9;fill-opacity:1"
       x="44.259224"
       y="165.5761"
       id="text848"><tspan
         sodipodi:role="line"
         id="tspan846"
         x="44.259224"
         y="165.5761"
         style="font-style:normal;font-variant:normal;font-weight:normal;font-stretch:normal;font-size:18.6667px;font-family:'Open Sans';-inkscape-font-specification:'Open Sans';fill:#267cb9;fill-opacity:1"
         dx="0">A VIRTUAL LAB</tspan></text><text
       xml:space="preserve"
       style="font-style:normal;font-variant:normal;font-weight:bold;font-stretch:normal;font-size:88px;line-height:1.25;font-family:cmr10;-inkscape-font-specification:'cmr10 Bold';word-spacing:0px;fill:#111111;fill-opacity:1"
       x="6.8100057"
       y="122.80177"
       id="text1225"><tspan
         sodipodi:role="line"
         id="tspan1223"
         x="6.8100057"
         y="122.80177"
         style="font-style:normal;font-variant:normal;font-weight:bold;font-stretch:normal;font-size:88px;font-family:cmr10;-inkscape-font-specification:'cmr10 Bold';fill:#111111;fill-opacity:1">open<tspan
   style="fill:#267cb9;fill-opacity:1"
   id="tspan3598">T</tspan>exi</tspan></text></g><rect
     style="fill:#267cb9;fill-opacity:1;stroke:none;stroke-width:1.002;stroke-dasharray:1.00043, 1.00043;stroke-dashoffset:0;paint-order:stroke fill markers;stop-color:#000000"
     id="rect7972"
     width="114.91895"
     height="114.91895"
     x="26.267687"
     y="247.29846"
     inkscape:export-filename="../../../../Downloads/logo.png"
     inkscape:export-xdpi="900"
     inkscape:export-ydpi="900"
     ry="13"
     rx="13" /><text
     xml:space="preserve"
     style="font-style:normal;font-variant:normal;font-weight:bold;font-stretch:normal;font-size:120.641px;line-height:1.25;font-family:cmr10;-inkscape-font-specification:'cmr10 Bold';word-spacing:0px;overflow:visible;fill:#ffffff;fill-opacity:1;stroke-width:1.37092"
     x="95.28978"
     y="311.07977"
     id="text7980"
     transform="matrix(0.88776037,0,-0.25066392,1.1264301,0,0)"><tspan
       sodipodi:role="line"
       id="tspan7978"
       x="95.28978"
       y="311.07977"
       style="font-style:normal;font-variant:normal;font-weight:bold;font-stretch:normal;font-size:120.641px;font-family:cmr10;-inkscape-font-specification:'cmr10 Bold';fill:#ffffff;fill-opacity:1;stroke-width:1.37092"><tspan
         style="fill:#ffffff;fill-opacity:1;stroke-width:1.37092"
         id="tspan7976">oT</tspan></tspan></text></svg>
