<?xml version="1.0" encoding="UTF-8" standalone="no"?>
<svg
   height="229.84952"
   width="367.75922"
   style="overflow:visible"
   version="1.1"
   id="svg203"
   sodipodi:docname="logo.svg"
   xml:space="preserve"
   inkscape:version="1.2.2 (b0a8486, 2022-12-01)"
   xmlns:inkscape="http://www.inkscape.org/namespaces/inkscape"
   xmlns:sodipodi="http://sodipodi.sourceforge.net/DTD/sodipodi-0.dtd"
   xmlns="http://www.w3.org/2000/svg"
   xmlns:svg="http://www.w3.org/2000/svg"><sodipodi:namedview
     id="namedview205"
     pagecolor="#ffffff"
     bordercolor="#666666"
     borderopacity="1.0"
     inkscape:showpageshadow="2"
     inkscape:pageopacity="0.0"
     inkscape:pagecheckerboard="0"
     inkscape:deskcolor="#d1d1d1"
     showgrid="false"
     inkscape:zoom="1.1604847"
     inkscape:cx="151.66076"
     inkscape:cy="97.803958"
     inkscape:window-width="1920"
     inkscape:window-height="1027"
     inkscape:window-x="0"
     inkscape:window-y="25"
     inkscape:window-maximized="1"
     inkscape:current-layer="svg203" /><defs
     id="SvgjsDefs1001" /><g
     id="SvgjsG1007"
     featurekey="textGroupContainer"
     transform="translate(0.25922281,66.083939)"
     fill="#111111"><rect
       y="0"
       x="0"
       height="1"
       width="1"
       opacity="0"
       id="rect190" /><rect
       y="96.14286"
       x="0"
       width="35"
       height="2"
       id="rect192" /><rect
       y="96.14286"
       x="332.5"
       width="35"
       height="2"
       id="rect194" /></g><g
     id="SvgjsG1008"
     featurekey="YhTCwJ-0"
     transform="matrix(4.4814341,0,0,4.4814341,2.9852167,37.195336)"
     fill="#111111"><path
       d="m 2.8,12.4 v 5 c 0,0.9 0.7,1.6 1.6,1.6 h 2.5 c 0.9,0 1.6,-0.7 1.6,-1.6 v -5 C 8.5,11.5 7.8,10.8 6.9,10.8 H 4.4 c -0.9,0 -1.6,0.7 -1.6,1.6 z m -1.4,5 v -5 c 0,-1.6 1.2,-2.8 3,-2.8 h 2.5 c 1.8,0 3,1.2 3,2.8 v 5 c 0,1.6 -1.2,2.8 -3,2.8 H 4.4 c -1.9,0 -3,-1.2 -3,-2.8 z M 16.6,9.6 h 1.8 c 1.8,0 3,1.2 3,2.8 v 4.8 c 0,1.6 -1.2,2.8 -3,2.8 h -4.1 v 3.4 H 12.9 V 9.8 h 0.9 l 0.2,1.4 h 0.1 c 0,0 0.8,-1.6 2.5,-1.6 z m 1.8,1.2 h -1.8 c -1.5,0 -2.3,1.8 -2.3,1.8 v 6.2 h 4.1 c 0.9,0 1.6,-0.7 1.6,-1.6 v -4.8 c 0,-0.9 -0.7,-1.6 -1.6,-1.6 z M 32,20 h -4.8 c -1.9,0 -3,-1.2 -3,-2.8 v -4.8 c 0,-1.6 1.2,-2.8 3,-2.8 h 2.2 c 1.8,0 3,1.2 3,2.8 v 3.1 h -6.8 v 1.7 c 0,0.9 0.7,1.6 1.6,1.6 H 32 Z m -6.4,-7.6 v 1.9 H 31 v -1.9 c 0,-0.9 -0.7,-1.6 -1.6,-1.6 h -2.2 c -0.9,0 -1.6,0.7 -1.6,1.6 z M 43.9,20 h -1.4 v -7.6 c 0,-0.9 -0.7,-1.6 -1.6,-1.6 h -1.8 c -1.5,0 -2.3,1.8 -2.3,1.8 V 20 H 35.4 V 9.8 h 0.9 l 0.2,1.4 h 0.1 c 0,0 0.8,-1.6 2.5,-1.6 h 1.8 c 1.8,0 3,1.2 3,2.8 z M 51.6,7.3 V 20 H 50.1 V 7.3 H 45.7 V 6 H 56 V 6.9 L 55.6,7.3 Z M 65.4,20 h -4.8 c -1.9,0 -3,-1.2 -3,-2.8 v -4.8 c 0,-1.6 1.2,-2.8 3,-2.8 h 2.2 c 1.8,0 3,1.2 3,2.8 v 3.1 H 59 v 1.7 c 0,0.9 0.7,1.6 1.6,1.6 h 4.8 z M 59,12.4 v 1.9 h 5.4 v -1.9 c 0,-0.9 -0.7,-1.6 -1.6,-1.6 h -2.2 c -0.9,0 -1.6,0.7 -1.6,1.6 z M 74.7,20 71.9,15.6 H 71.8 L 69,20 h -1.4 v -0.6 l 3.2,-4.7 -3,-4.3 V 9.8 h 1.4 l 2.6,4.02 h 0.1 L 74.5,9.8 h 1.4 v 0.6 l -3,4.3 3.2,4.7 V 20 Z M 79.5,9.8 V 20 H 78.1 V 9.8 Z M 79.5,6 V 8.4 H 78.1 V 6 Z"
       id="path197" /></g><g
     id="SvgjsG1009"
     featurekey="duLK5n-0"
     transform="matrix(0.94748244,0,0,0.94748244,43.88023,146.62644)"
     fill="#267cb9"><path
       d="M 11.3,20 9.72,15.86 H 3.9 L 2.32,20 H 0.4 L 5.88,5.76 H 7.74 L 13.24,20 Z M 9.02,14.1 6.82,8.34 4.6,14.1 Z M 44.56,5.76 h 1.94 l 4.48,11.66 4.5,-11.66 H 57.4 L 51.92,20 H 50.06 Z M 72.76,20 V 5.76 h 1.8 V 20 Z m 24.16,-7.58 5.5,7.58 h -2.06 L 94.92,12.52 H 92.88 V 20 H 91.16 V 5.76 h 4.94 c 0.9,0 1.74,0.36 2.38,1 0.64,0.64 1,1.48 1,2.38 0,1.58 -1.1,2.9 -2.56,3.28 z M 92.88,7.48 v 3.32 h 3.22 c 0.92,0 1.66,-0.74 1.66,-1.66 0,-0.92 -0.74,-1.66 -1.66,-1.66 z M 118.62,20 V 7.52 h -3.76 V 5.76 h 9.32 v 1.76 h -3.76 V 20 Z M 148.14,5.76 h 1.8 v 9.02 c 0,3 -2.44,5.42 -5.44,5.42 -2.98,0 -5.42,-2.42 -5.42,-5.42 V 5.76 h 1.78 v 9.02 c 0,2.02 1.64,3.68 3.64,3.68 2.02,0 3.64,-1.66 3.64,-3.68 z M 174.92,20 173.34,15.86 h -5.82 L 165.94,20 h -1.92 L 169.5,5.76 h 1.86 l 5.5,14.24 z m -2.28,-5.9 -2.2,-5.76 -2.22,5.76 z M 191.72,20 V 5.76 h 1.8 v 12.5 h 7.8 V 20 Z m 42.14,0 V 5.76 h 1.8 v 12.5 h 7.8 V 20 Z m 34.7,0 -1.58,-4.14 h -5.82 L 259.58,20 h -1.92 L 263.14,5.76 H 265 L 270.5,20 Z m -2.28,-5.9 -2.2,-5.76 -2.22,5.76 z M 285.16,20 V 5.76 h 5.12 c 0.9,0 1.76,0.36 2.38,1 0.64,0.62 1,1.48 1,2.38 0,0.7 -0.2,1.36 -0.6,1.92 l -0.02,0.02 0.02,0.02 c 0.56,0.22 1.08,0.56 1.5,1 0.88,0.86 1.36,2.02 1.36,3.26 0,1.22 -0.48,2.38 -1.36,3.26 -0.86,0.86 -2.02,1.38 -3.24,1.38 z m 1.78,-1.74 h 4.38 c 1.56,-0.04 2.82,-1.36 2.82,-2.9 0,-1.56 -1.26,-2.84 -2.82,-2.86 h -4.38 z m 0,-7.5 h 3.34 c 0.88,-0.02 1.6,-0.74 1.6,-1.62 0,-0.88 -0.7,-1.6 -1.6,-1.64 h -3.34 z"
       id="path200" /></g></svg>
